# xmcd
#
# Track frame offsets:
#	151
#	20423
#	26653
#	40161
#	57736
#	70089
#	87481
#	103078
#	111156
#	124948
#	132214
#	168906
#	186871
#	217162
#	235528
#	263906
#	295307
#
# Disc length: 4310 seconds
#
# Revision: 0
# Processed by: cddbd v1.5.2PL0 Copyright (c) Steve Scherf et al.
# Submitted via: EZCDAudioConverter 2.1.7.1
#
DISCID=fd10d411
DTITLE=Turid - Stars And Angels
DYEAR=1900
DGENRE=
TTITLE0=Song
TTITLE1=Nyckelbanepigevisa
TTITLE2=Going To Prison
TTITLE3=Vittras Vaggvisa
TTITLE4=Crystal Shade Of Loneliness
TTITLE5=Sometimes I Think Age Is A Treasure
TTITLE6=Play Macabre
TTITLE7=Bilder
TTITLE8=Tintomara
TTITLE9=Låt Mig Se Dig
TTITLE10=Och Sommaren Kom
TTITLE11=Tom I Bollen
TTITLE12=Ödegårdar
TTITLE13=Vargen
TTITLE14=Personligt Brev
TTITLE15=Stjärnor Och Änglar
TTITLE16=På Tredje Dagen Uppståndna
EXTD=
EXTT0=
EXTT1=
EXTT2=
EXTT3=
EXTT4=
EXTT5=
EXTT6=
EXTT7=
EXTT8=
EXTT9=
EXTT10=
EXTT11=
EXTT12=
EXTT13=
EXTT14=
EXTT15=
EXTT16=
PLAYORDER=
